<?xml version="1.0" encoding="utf-8"?>
<!-- Generator: Adobe Illustrator 22.1.0, SVG Export Plug-In . SVG Version: 6.00 Build 0)  -->
<svg version="1.1" id="Capa_1" xmlns="http://www.w3.org/2000/svg" xmlns:xlink="http://www.w3.org/1999/xlink" x="0px" y="0px"
	 viewBox="0 0 502.2 573" style="enable-background:new 0 0 502.2 573;" xml:space="preserve">
<style type="text/css">
	.st0{fill:#FFFFFF;}
</style>
<path class="st0" d="M105.3,38.7V26c0-5.7-2.8-8.6-8.4-8.6h-3c-5.5,0-8.2,2.9-8.2,8.6v23.8c0,2.7,0.5,4.5,1.6,5.4
	c1.1,0.9,2.8,2.1,5.2,3.6l18.2,9.8c4,2.3,6.8,4,8.5,5.3c1.7,1.3,3,2.8,3.9,4.6c0.9,1.8,1.4,5.2,1.4,10.3v30.7
	c0,16.2-7.7,24.2-23.2,24.2H89.4c-15.4,0-23-8.8-23-26.4v-7.2h19.2v7.8c0,5.6,2.9,8.4,8.6,8.4h3.4c5.1,0,7.6-2.8,7.6-8.4V93.6
	c0-2.7-0.5-4.5-1.6-5.4c-1.1-0.9-2.8-2.1-5.2-3.6L80.2,74.3c-4-2.1-6.9-3.9-8.7-5.4c-1.8-1.5-3.1-3.4-3.9-5.7
	c-0.8-2.3-1.2-5.4-1.2-9.1V24.6C66.4,8.2,74.1,0,89.4,0h12c15.4,0,23,8.2,23,24.6v14H105.3z"/>
<path class="st0" d="M203,0v116.6c0,18.2-7.7,27.2-23.2,27.2h-16.2c-15.4,0-23-9.1-23-27.4V0h19.2v117c0,6.3,2.8,9.4,8.4,9.4h7.8
	c5.2,0,7.8-3.1,7.8-9.4V0H203z"/>
<path class="st0" d="M221.1,0h35.1c15.5,0,23.2,8.2,23.2,24.6v42.7c0,16.3-7.7,24.4-23,24.4h-16v52.1h-19.2V0z M240.3,74.3h12.2
	c5.1,0,7.6-2.8,7.6-8.4V25.8c0-5.6-2.9-8.4-8.6-8.4h-11.2V74.3z"/>
<path class="st0" d="M294.6,143.9V0h47.7v17.4h-28.5v43.7h25.2v17.4h-25.2v47.9h28.5v17.4H294.6z"/>
<path class="st0" d="M356.1,0h37.7c14.7,0,22,8.2,22,24.6v35.5c0,12.6-3.8,20.5-11.4,23.8l13.4,59.9h-18.2L387,85.8h-11.6v58.1
	h-19.2V0z M375.3,69.3H388c5.7,0,8.6-3.5,8.6-10.4V27.8c0-6.9-2.9-10.4-8.6-10.4h-12.6V69.3z"/>
<path class="st0" d="M64.6,267.5v25.3H27.9v94.8H0V178.8h69.2v25.3H27.9v63.4H64.6z"/>
<path class="st0" d="M114.6,387.6H86.7v-173c0-23.8,11.1-35.8,33.4-35.8H141c22.3,0,33.4,11.9,33.4,35.8v173h-27.9v-76.5h-32V387.6z
	 M146.6,285.8v-69.5c0-8.1-4.1-12.2-12.2-12.2h-7.6c-8.1,0-12.2,4.1-12.2,12.2v69.5H146.6z"/>
<path class="st0" d="M257.1,279.7V178.8H285v208.8h-27.9V346l-30-95.1v136.7h-27.9V178.8h27.9L257.1,279.7z"/>
<path class="st0" d="M394.6,338.8v13.4c0,23.7-11.2,35.5-33.4,35.5h-18c-22.3,0-33.4-11.8-33.4-35.5V214.3
	c0-23.7,11.1-35.5,33.4-35.5h18c22.3,0,33.4,11.8,33.4,35.5v23.6h-27.9v-21.5c0-8.1-4.2-12.2-12.5-12.2h-5.5
	c-7.4,0-11.1,4.1-11.1,12.2v133.8c0,8.1,3.7,12.2,11.1,12.2h7c7.4,0,11.1-4.1,11.1-12.2v-11.3H394.6z"/>
<path class="st0" d="M468.5,387.6h-27.9v-76.8l-34.3-132h27.6l20.9,90.7h0.9l18.9-90.7h27.6l-33.7,132V387.6z"/>
<path class="st0" d="M96.1,467.8v-12.6c0-5.7-2.8-8.6-8.4-8.6h-3c-5.5,0-8.2,2.9-8.2,8.6V479c0,2.7,0.5,4.5,1.6,5.4
	c1.1,0.9,2.8,2.1,5.2,3.6l18.2,9.8c4,2.3,6.8,4,8.5,5.3c1.7,1.3,3,2.8,3.9,4.6c0.9,1.8,1.4,5.2,1.4,10.3v30.7
	c0,16.2-7.7,24.2-23.2,24.2H80.2c-15.4,0-23-8.8-23-26.4v-7.2h19.2v7.8c0,5.6,2.9,8.4,8.6,8.4h3.4c5.1,0,7.6-2.8,7.6-8.4v-24.4
	c0-2.7-0.5-4.5-1.6-5.4c-1.1-0.9-2.8-2.1-5.2-3.6L71,503.5c-4-2.1-6.9-3.9-8.7-5.4c-1.8-1.5-3.1-3.4-3.9-5.7
	c-0.8-2.3-1.2-5.4-1.2-9.1v-29.5c0-16.4,7.7-24.6,23-24.6h12c15.4,0,23,8.2,23,24.6v14H96.1z"/>
<path class="st0" d="M131.3,573V429.2H179v17.4h-28.5v43.7h25.2v17.4h-25.2v47.9H179V573H131.3z"/>
<path class="st0" d="M192.8,429.2h37.7c14.7,0,22,8.2,22,24.6v35.5c0,12.6-3.8,20.5-11.4,23.8l13.4,59.9h-18.2l-12.6-58.1h-11.6V573
	h-19.2V429.2z M212.1,498.5h12.6c5.7,0,8.6-3.5,8.6-10.4V457c0-6.9-2.9-10.4-8.6-10.4h-12.6V498.5z"/>
<path class="st0" d="M268.6,573V429.2h19.2V573H268.6z"/>
<path class="st0" d="M305.8,573V429.2h47.7v17.4h-28.5v43.7h25.2v17.4h-25.2v47.9h28.5V573H305.8z"/>
<path class="st0" d="M404.2,467.8v-12.6c0-5.7-2.8-8.6-8.4-8.6h-3c-5.5,0-8.2,2.9-8.2,8.6V479c0,2.7,0.5,4.5,1.6,5.4
	c1.1,0.9,2.8,2.1,5.2,3.6l18.2,9.8c4,2.3,6.8,4,8.5,5.3c1.7,1.3,3,2.8,3.9,4.6c0.9,1.8,1.4,5.2,1.4,10.3v30.7
	c0,16.2-7.7,24.2-23.2,24.2h-11.8c-15.4,0-23-8.8-23-26.4v-7.2h19.2v7.8c0,5.6,2.9,8.4,8.6,8.4h3.4c5.1,0,7.6-2.8,7.6-8.4v-24.4
	c0-2.7-0.5-4.5-1.6-5.4c-1.1-0.9-2.8-2.1-5.2-3.6l-18.2-10.2c-4-2.1-6.9-3.9-8.7-5.4c-1.8-1.5-3.1-3.4-3.9-5.7
	c-0.8-2.3-1.2-5.4-1.2-9.1v-29.5c0-16.4,7.7-24.6,23-24.6h12c15.4,0,23,8.2,23,24.6v14H404.2z"/>
</svg>
